<svg width="101" height="83" viewBox="0 0 101 83" fill="none" xmlns="http://www.w3.org/2000/svg">
<path d="M34.0821 19.2432H67.1166C67.5671 19.2432 67.9824 19.0441 68.1868 18.7289C68.3906 18.4137 68.3487 18.0364 68.0775 17.7525L51.5654 0.378298C51.3363 0.141118 50.9811 0 50.601 0C50.2211 0 49.8619 0.141118 49.6367 0.378298L33.1212 17.7525C32.8499 18.0364 32.8078 18.4137 33.0116 18.7289C33.2161 19.0441 33.6318 19.2432 34.0821 19.2432Z" fill="url(#paint0_linear_13_5)"/>
<path d="M100.973 31.3223C100.973 30.5776 100.198 29.974 99.242 29.974H95.9153C94.9681 29.974 94.1967 30.5672 94.1843 31.3054L94.1363 34.2048H90.0669V31.3228C90.0669 30.5779 89.2918 29.974 88.3359 29.974H84.9586C84.0026 29.974 83.2276 30.5779 83.2276 31.3228V34.2048H79.1656V31.3228C79.1656 30.5779 78.3905 29.974 77.4346 29.974H74.052C73.0968 29.974 72.3219 30.5771 72.3211 31.3214L72.3049 43.6752H64.3288V22.8992C64.3288 22.3358 63.7445 21.8801 63.0229 21.8801H38.1827C37.4614 21.8801 36.877 22.3358 36.877 22.8992V43.6754H28.9677L28.9773 31.3238C28.9775 30.9661 28.7953 30.6226 28.4708 30.3696C28.1462 30.1167 27.7056 29.9743 27.2465 29.9743H23.7961C22.8402 29.9743 22.0651 30.5783 22.0651 31.3231V34.2052H18.0027V31.3231C18.0027 30.5783 17.2276 29.9743 16.2717 29.9743H12.8946C11.9387 29.9743 11.1636 30.5783 11.1636 31.3231V34.2052H7.09441V31.3231C7.09441 30.5783 6.31936 29.9743 5.36342 29.9743H1.98437C1.02909 29.9743 0.25426 30.5774 0.253387 31.3218L0.187927 83H37.6405V74.2876C37.6405 68.7129 43.4414 64.1943 50.594 64.1943C57.7464 64.1943 63.5474 68.7129 63.5474 74.2876V82.9999H101L100.973 31.3223ZM19.1642 53.6963C19.1642 54.2599 18.5796 54.7152 17.858 54.7152H11.3109C10.5895 54.7152 10.0054 54.2599 10.0054 53.6963V43.529C10.0054 41.5584 12.0539 39.9607 14.5846 39.9607C17.112 39.9607 19.1642 41.5586 19.1642 43.529V53.6963ZM55.1805 39.7123C55.1805 40.2758 54.596 40.7313 53.8746 40.7313H47.3275C46.6057 40.7313 46.0218 40.2758 46.0218 39.7123V29.5449C46.0218 27.5742 48.0703 25.9765 50.6009 25.9765C53.1284 25.9765 55.1805 27.5742 55.1805 29.5449V39.7123ZM91.2323 53.6963C91.2323 54.2599 90.6475 54.7152 89.9263 54.7152H83.3792C82.6574 54.7152 82.0729 54.2599 82.0729 53.6963V43.529C82.0729 41.5584 84.1218 39.9607 86.6527 39.9607C89.1801 39.9607 91.2323 41.5586 91.2323 43.529V53.6963Z" fill="url(#paint1_linear_13_5)"/>
<defs>
<linearGradient id="paint0_linear_13_5" x1="62.4301" y1="1.31443" x2="42.431" y2="30.6264" gradientUnits="userSpaceOnUse">
<stop stop-color="#85E2F4"/>
<stop offset="1" stop-color="#56B7D2"/>
</linearGradient>
<linearGradient id="paint1_linear_13_5" x1="84.2561" y1="26.055" x2="18.4898" y2="112.405" gradientUnits="userSpaceOnUse">
<stop stop-color="#85E2F4"/>
<stop offset="1" stop-color="#56B7D2"/>
</linearGradient>
</defs>
</svg>
