<svg width="71" height="53" viewBox="0 0 71 53" fill="none" xmlns="http://www.w3.org/2000/svg">
<path d="M23.9951 12.2878H47.1984C47.5149 12.2878 47.8065 12.1607 47.9501 11.9594C48.0933 11.7581 48.0639 11.5172 47.8734 11.3359L36.2753 0.241564C36.1144 0.0901115 35.8649 0 35.5979 0C35.3311 0 35.0788 0.0901115 34.9206 0.241564L23.3202 11.3359C23.1296 11.5172 23.1001 11.7581 23.2432 11.9594C23.3868 12.1607 23.6788 12.2878 23.9951 12.2878Z" fill="url(#paint0_linear_13_5)"/>
<path d="M70.9789 20.0009C70.9786 19.5254 70.4344 19.14 69.7631 19.14H67.4264C66.7611 19.14 66.2193 19.5188 66.2106 19.9902L66.1769 21.8416H63.3185V20.0013C63.3185 19.5256 62.7741 19.14 62.1027 19.14H59.7305C59.059 19.14 58.5147 19.5256 58.5147 20.0013V21.8416H55.6615V20.0013C55.6615 19.5256 55.1171 19.14 54.4457 19.14H52.0698C51.3988 19.14 50.8546 19.5251 50.8539 20.0004L50.8426 27.889H45.2402V14.6224C45.2402 14.2626 44.8298 13.9716 44.3229 13.9716H26.8753C26.3686 13.9716 25.9582 14.2626 25.9582 14.6224V27.8891H20.4027L20.4095 20.0019C20.4096 19.7735 20.2816 19.5542 20.0537 19.3926C19.8257 19.2311 19.5162 19.1402 19.1938 19.1402H16.7702C16.0988 19.1402 15.5544 19.5258 15.5544 20.0015V21.8418H12.7009V20.0015C12.7009 19.5258 12.1565 19.1402 11.4851 19.1402H9.11305C8.4416 19.1402 7.89721 19.5258 7.89721 20.0015V21.8418H5.03901V20.0015C5.03901 19.5258 4.49462 19.1402 3.82317 19.1402H1.44974C0.778756 19.1402 0.234519 19.5253 0.233906 20.0006L0.187927 53H26.4945V47.4366C26.4945 43.8769 30.569 40.9915 35.5929 40.9915C40.6167 40.9915 44.6914 43.8769 44.6914 47.4366V52.9999H70.9979L70.9789 20.0009ZM13.5168 34.288C13.5168 34.6479 13.1062 34.9386 12.5993 34.9386H8.00067C7.49398 34.9386 7.08369 34.6479 7.08369 34.288V27.7956C7.08369 26.5373 8.52253 25.5171 10.3001 25.5171C12.0753 25.5171 13.5168 26.5374 13.5168 27.7956V34.288ZM38.8145 25.3584C38.8145 25.7182 38.4039 26.0091 37.8972 26.0091H33.2986C32.7916 26.0091 32.3815 25.7182 32.3815 25.3584V18.866C32.3815 17.6076 33.8203 16.5873 35.5978 16.5873C37.3731 16.5873 38.8145 17.6076 38.8145 18.866V25.3584ZM64.1371 34.288C64.1371 34.6479 63.7264 34.9386 63.2198 34.9386H58.6212C58.1142 34.9386 57.7036 34.6479 57.7036 34.288V27.7956C57.7036 26.5373 59.1427 25.5171 60.9204 25.5171C62.6957 25.5171 64.1371 26.5374 64.1371 27.7956V34.288Z" fill="url(#paint1_linear_13_5)"/>
<defs>
<linearGradient id="paint0_linear_13_5" x1="43.9066" y1="0.839331" x2="31.6196" y2="20.6484" gradientUnits="userSpaceOnUse">
<stop stop-color="#85E2F4"/>
<stop offset="1" stop-color="#56B7D2"/>
</linearGradient>
<linearGradient id="paint1_linear_13_5" x1="59.2371" y1="16.6375" x2="18.4612" y2="75.528" gradientUnits="userSpaceOnUse">
<stop stop-color="#85E2F4"/>
<stop offset="1" stop-color="#56B7D2"/>
</linearGradient>
</defs>
</svg>
